<svg width="28" height="29" viewBox="0 0 28 29" fill="none" xmlns="http://www.w3.org/2000/svg">
<g id="Sun">
<path id="Vector" d="M11.15 5.57471C11.0623 5.42269 11.016 5.25025 11.016 5.07471C11.016 4.89917 11.0623 4.72673 11.15 4.57471L13.15 0.57471C13.2339 0.410908 13.3614 0.273443 13.5185 0.177453C13.6755 0.0814621 13.856 0.0306702 14.04 0.0306702C14.2241 0.0306702 14.4045 0.0814621 14.5616 0.177453C14.7186 0.273443 14.8461 0.410908 14.93 0.57471L16.93 4.57471C17.0133 4.73066 17.0538 4.90591 17.0473 5.0826C17.0408 5.25928 16.9876 5.43109 16.893 5.5805C16.7985 5.72992 16.6661 5.8516 16.5092 5.93314C16.3523 6.01469 16.1766 6.05319 16 6.04471H12C11.8301 6.04505 11.6628 6.00207 11.5141 5.91984C11.3654 5.8376 11.2401 5.71882 11.15 5.57471ZM5.27002 9.41471C5.32873 9.57274 5.42644 9.71336 5.55407 9.82351C5.6817 9.93365 5.8351 10.0097 6.00002 10.0447H6.23002C6.36163 10.0455 6.49209 10.0202 6.61393 9.97048C6.73577 9.92072 6.84658 9.84739 6.94002 9.75471L9.77002 6.92471C9.8752 6.80666 9.95088 6.66534 9.99086 6.51237C10.0308 6.3594 10.034 6.19913 10 6.04471C9.96167 5.87941 9.88188 5.72658 9.76817 5.60062C9.65445 5.47466 9.51056 5.37971 9.35002 5.32471L5.12002 3.90471C4.94464 3.84775 4.75692 3.84039 4.57761 3.88344C4.39831 3.9265 4.2344 4.0183 4.10401 4.14869C3.97361 4.27909 3.88181 4.443 3.83876 4.6223C3.7957 4.80161 3.80306 4.98933 3.86002 5.16471L5.27002 9.41471ZM5.00002 17.0447C5.18725 17.0453 5.37088 16.9933 5.53002 16.8947C5.67413 16.8046 5.79291 16.6793 5.87515 16.5306C5.95739 16.3819 6.00036 16.2147 6.00002 16.0447V12.0447C5.99951 11.8742 5.95542 11.7067 5.87196 11.5581C5.78849 11.4095 5.66842 11.2846 5.52314 11.1955C5.37786 11.1063 5.21219 11.0557 5.04188 11.0486C4.87156 11.0415 4.70225 11.078 4.55002 11.1547L0.550021 13.1547C0.386219 13.2386 0.248754 13.3661 0.152764 13.5232C0.0567734 13.6802 0.00598145 13.8607 0.00598145 14.0447C0.00598145 14.2288 0.0567734 14.4092 0.152764 14.5663C0.248754 14.7233 0.386219 14.8508 0.550021 14.9347L4.55002 16.9347C4.68934 17.0061 4.84348 17.0438 5.00002 17.0447ZM6.93002 18.2847C6.8076 18.1699 6.65825 18.0877 6.49572 18.0457C6.33319 18.0038 6.16272 18.0034 6.00002 18.0447C5.83472 18.0831 5.68189 18.1629 5.55593 18.2766C5.42997 18.3903 5.33502 18.5342 5.28002 18.6947L3.86002 22.9247C3.80571 23.0975 3.79935 23.2818 3.84162 23.4579C3.88389 23.6341 3.9732 23.7954 4.10002 23.9247C4.19346 24.0174 4.30428 24.0907 4.42611 24.1405C4.54795 24.1902 4.67841 24.2155 4.81002 24.2147C4.91558 24.2177 5.02075 24.2007 5.12002 24.1647L9.37002 22.7547C9.52563 22.6978 9.66467 22.6032 9.77463 22.4792C9.8846 22.3553 9.96205 22.206 10 22.0447C10.0405 21.8789 10.0379 21.7054 9.99239 21.5409C9.94687 21.3763 9.85999 21.2262 9.74002 21.1047L6.93002 18.2847ZM16 22.0447H12C11.8296 22.0452 11.6621 22.0893 11.5134 22.1728C11.3648 22.2562 11.24 22.3763 11.1508 22.5216C11.0616 22.6669 11.0111 22.8325 11.0039 23.0029C10.9968 23.1732 11.0333 23.3425 11.11 23.4947L13.11 27.4947C13.1939 27.6585 13.3214 27.796 13.4785 27.892C13.6355 27.988 13.816 28.0387 14 28.0387C14.1841 28.0387 14.3645 27.988 14.5216 27.892C14.6786 27.796 14.8061 27.6585 14.89 27.4947L16.89 23.4947C16.9667 23.3425 17.0033 23.1732 16.9961 23.0029C16.989 22.8325 16.9384 22.6669 16.8493 22.5216C16.7601 22.3763 16.6353 22.2562 16.4866 22.1728C16.338 22.0893 16.1705 22.0452 16 22.0447ZM22.73 18.6747C22.6713 18.5167 22.5736 18.3761 22.446 18.2659C22.3183 18.1558 22.1649 18.0797 22 18.0447C21.8342 18.0042 21.6607 18.0068 21.4962 18.0523C21.3316 18.0979 21.1815 18.1847 21.06 18.3047L18.23 21.1347C18.1085 21.2551 18.0198 21.4047 17.9726 21.5691C17.9254 21.7335 17.9211 21.9074 17.9602 22.0739C17.9994 22.2405 18.0806 22.3942 18.1961 22.5204C18.3116 22.6466 18.4576 22.741 18.62 22.7947L22.87 24.2047C22.9693 24.2407 23.0745 24.2577 23.18 24.2547C23.3116 24.2555 23.4421 24.2302 23.5639 24.1805C23.6858 24.1307 23.7966 24.0574 23.89 23.9647C24.0168 23.8354 24.1061 23.6741 24.1484 23.4979C24.1907 23.3218 24.1843 23.1375 24.13 22.9647L22.73 18.6747ZM27.45 13.1547L23.45 11.1547C23.2978 11.078 23.1285 11.0415 22.9582 11.0486C22.7878 11.0557 22.6222 11.1063 22.4769 11.1955C22.3316 11.2846 22.2115 11.4095 22.1281 11.5581C22.0446 11.7067 22.0005 11.8742 22 12.0447V16.0447C21.9997 16.2147 22.0427 16.3819 22.1249 16.5306C22.2071 16.6793 22.3259 16.8046 22.47 16.8947C22.6292 16.9933 22.8128 17.0453 23 17.0447C23.1566 17.0438 23.3107 17.0061 23.45 16.9347L27.45 14.9347C27.6138 14.8508 27.7513 14.7233 27.8473 14.5663C27.9433 14.4092 27.9941 14.2288 27.9941 14.0447C27.9941 13.8607 27.9433 13.6802 27.8473 13.5232C27.7513 13.3661 27.6138 13.2386 27.45 13.1547ZM21.07 9.80471C21.1635 9.89739 21.2743 9.97072 21.3961 10.0205C21.518 10.0702 21.6484 10.0955 21.78 10.0947L22 10.0447C22.1653 10.0064 22.3181 9.92657 22.4441 9.81285C22.5701 9.69914 22.665 9.55524 22.72 9.39471L24.13 5.14471C24.187 4.96933 24.1943 4.78161 24.1513 4.6023C24.1082 4.423 24.0164 4.25909 23.886 4.1287C23.7556 3.9983 23.5917 3.9065 23.4124 3.86344C23.2331 3.82039 23.0454 3.82775 22.87 3.88471L18.63 5.31471C18.4676 5.36838 18.3216 5.46283 18.2061 5.58904C18.0906 5.71524 18.0094 5.86896 17.9702 6.03551C17.9311 6.20207 17.9354 6.37587 17.9826 6.54031C18.0298 6.70475 18.1185 6.85431 18.24 6.97471L21.07 9.80471ZM14 8.04471C12.8133 8.04471 11.6533 8.3966 10.6666 9.05589C9.6799 9.71518 8.91087 10.6523 8.45674 11.7486C8.00262 12.845 7.8838 14.0514 8.11531 15.2153C8.34682 16.3791 8.91827 17.4482 9.75738 18.2874C10.5965 19.1265 11.6656 19.6979 12.8295 19.9294C13.9934 20.1609 15.1998 20.0421 16.2961 19.588C17.3925 19.1339 18.3295 18.3648 18.9888 17.3781C19.6481 16.3914 20 15.2314 20 14.0447C20 12.4534 19.3679 10.9273 18.2427 9.80207C17.1174 8.67685 15.5913 8.04471 14 8.04471Z" fill="black"/>
</g>
</svg>
